<svg width="60" height="96" viewBox="0 0 60 96" fill="none" xmlns="http://www.w3.org/2000/svg">
<circle cx="30" cy="30" r="29.5" stroke="#7633FF"/>
<path d="M20.64 86.016C20.4587 86.3253 20.2293 86.6133 19.952 86.88C19.6747 87.1467 19.344 87.376 18.96 87.568C18.5867 87.76 18.1707 87.9093 17.712 88.016C17.2533 88.1333 16.7627 88.192 16.24 88.192C15.4827 88.192 14.7627 88.0533 14.08 87.776C13.408 87.488 12.816 87.0827 12.304 86.56C11.792 86.0373 11.3867 85.4133 11.088 84.688C10.7893 83.9627 10.64 83.152 10.64 82.256C10.64 81.36 10.7893 80.5493 11.088 79.824C11.3867 79.088 11.792 78.464 12.304 77.952C12.816 77.4293 13.408 77.0293 14.08 76.752C14.7627 76.464 15.488 76.32 16.256 76.32C16.7787 76.32 17.264 76.3787 17.712 76.496C18.1707 76.6133 18.5813 76.7733 18.944 76.976C19.3067 77.168 19.6213 77.3973 19.888 77.664C20.1653 77.92 20.3787 78.1867 20.528 78.464L20.064 79.808C19.712 79.2853 19.2107 78.848 18.56 78.496C17.9093 78.1333 17.168 77.952 16.336 77.952C15.7173 77.952 15.152 78.0533 14.64 78.256C14.128 78.448 13.6853 78.7307 13.312 79.104C12.9493 79.4667 12.6667 79.9147 12.464 80.448C12.2613 80.9813 12.16 81.584 12.16 82.256C12.16 82.928 12.2613 83.5307 12.464 84.064C12.6667 84.5867 12.9493 85.0347 13.312 85.408C13.6853 85.7813 14.128 86.0693 14.64 86.272C15.152 86.464 15.7173 86.56 16.336 86.56C17.2533 86.56 18.032 86.3787 18.672 86.016C19.3227 85.6427 19.8293 85.1947 20.192 84.672L20.64 86.016ZM29.6991 82.352C29.9231 82.864 30.0351 83.4187 30.0351 84.016C30.0351 84.6133 29.9231 85.168 29.6991 85.68C29.4858 86.192 29.1925 86.6347 28.8191 87.008C28.4565 87.3813 28.0298 87.6747 27.5391 87.888C27.0591 88.0907 26.5471 88.192 26.0031 88.192C25.4591 88.192 24.9418 88.0907 24.4511 87.888C23.9605 87.6747 23.5285 87.3813 23.1551 87.008C22.7925 86.6347 22.5045 86.192 22.2911 85.68C22.0778 85.168 21.9711 84.6133 21.9711 84.016C21.9711 83.4187 22.0778 82.864 22.2911 82.352C22.5045 81.84 22.7925 81.3973 23.1551 81.024C23.5285 80.6507 23.9605 80.3573 24.4511 80.144C24.9418 79.9307 25.4591 79.824 26.0031 79.824C26.5471 79.824 27.0591 79.9307 27.5391 80.144C28.0298 80.3573 28.4565 80.6507 28.8191 81.024C29.1925 81.3973 29.4858 81.84 29.6991 82.352ZM23.4271 84.016C23.4271 84.4107 23.4911 84.7733 23.6191 85.104C23.7471 85.424 23.9285 85.7013 24.1631 85.936C24.3978 86.16 24.6698 86.336 24.9791 86.464C25.2885 86.5813 25.6298 86.64 26.0031 86.64C26.3658 86.64 26.7018 86.5813 27.0111 86.464C27.3311 86.336 27.6085 86.16 27.8431 85.936C28.0778 85.7013 28.2591 85.424 28.3871 85.104C28.5151 84.784 28.5791 84.4267 28.5791 84.032C28.5791 83.6373 28.5151 83.28 28.3871 82.96C28.2591 82.6293 28.0778 82.3467 27.8431 82.112C27.6085 81.8773 27.3311 81.696 27.0111 81.568C26.7018 81.44 26.3658 81.376 26.0031 81.376C25.6298 81.376 25.2885 81.44 24.9791 81.568C24.6698 81.696 24.3978 81.8773 24.1631 82.112C23.9285 82.3467 23.7471 82.6293 23.6191 82.96C23.4911 83.28 23.4271 83.632 23.4271 84.016ZM39.7409 82.32C39.9649 82.832 40.0769 83.3973 40.0769 84.016C40.0769 84.6347 39.9649 85.2 39.7409 85.712C39.5169 86.224 39.2182 86.6667 38.8449 87.04C38.4715 87.4027 38.0342 87.6853 37.5329 87.888C37.0422 88.0907 36.5249 88.192 35.9809 88.192C35.3729 88.192 34.8502 88.0907 34.4129 87.888C33.9755 87.6853 33.6929 87.4347 33.5649 87.136V91.408H32.1089V80.016H33.5169V80.864C33.6449 80.5653 33.9275 80.32 34.3649 80.128C34.8129 79.9253 35.3409 79.824 35.9489 79.824C36.5035 79.824 37.0315 79.9253 37.5329 80.128C38.0342 80.3307 38.4715 80.6187 38.8449 80.992C39.2182 81.3547 39.5169 81.7973 39.7409 82.32ZM38.6209 83.984C38.6209 83.184 38.3755 82.5493 37.8849 82.08C37.3942 81.6107 36.7435 81.376 35.9329 81.376C35.3782 81.376 34.8769 81.504 34.4289 81.76C33.9915 82.0053 33.7035 82.32 33.5649 82.704V85.312C33.7035 85.696 33.9915 86.016 34.4289 86.272C34.8769 86.5173 35.3782 86.64 35.9329 86.64C36.7435 86.64 37.3942 86.4 37.8849 85.92C38.3755 85.44 38.6209 84.7947 38.6209 83.984ZM40.9443 80.016H42.5763L45.0243 85.888L47.4563 80.016H49.0723L44.3203 91.408H42.7043L44.2403 87.696L40.9443 80.016Z" fill="#7633FF"/>
<path d="M25 35C23.5833 35 22.3958 34.5208 21.4375 33.5625C20.4792 32.6042 20 31.4167 20 30C20 28.5833 20.4792 27.3958 21.4375 26.4375C22.3958 25.4792 23.5833 25 25 25H28.5C28.7167 25 28.8958 25.0708 29.0375 25.2125C29.1792 25.3542 29.25 25.5333 29.25 25.75C29.25 25.9667 29.1792 26.1458 29.0375 26.2875C28.8958 26.4292 28.7167 26.5 28.5 26.5H25C24 26.5 23.1667 26.8333 22.5 27.5C21.8333 28.1667 21.5 29 21.5 30C21.5 31 21.8333 31.8333 22.5 32.5C23.1667 33.1667 24 33.5 25 33.5H28.5C28.7167 33.5 28.8958 33.5708 29.0375 33.7125C29.1792 33.8542 29.25 34.0333 29.25 34.25C29.25 34.4667 29.1792 34.6458 29.0375 34.7875C28.8958 34.9292 28.7167 35 28.5 35H25ZM26.875 30.75C26.6583 30.75 26.4792 30.6792 26.3375 30.5375C26.1958 30.3958 26.125 30.2167 26.125 30C26.125 29.7833 26.1958 29.6042 26.3375 29.4625C26.4792 29.3208 26.6583 29.25 26.875 29.25H33.125C33.3417 29.25 33.5208 29.3208 33.6625 29.4625C33.8042 29.6042 33.875 29.7833 33.875 30C33.875 30.2167 33.8042 30.3958 33.6625 30.5375C33.5208 30.6792 33.3417 30.75 33.125 30.75H26.875ZM31.5 35C31.2833 35 31.1042 34.9292 30.9625 34.7875C30.8208 34.6458 30.75 34.4667 30.75 34.25C30.75 34.0333 30.8208 33.8542 30.9625 33.7125C31.1042 33.5708 31.2833 33.5 31.5 33.5H35C36 33.5 36.8333 33.1667 37.5 32.5C38.1667 31.8333 38.5 31 38.5 30C38.5 29 38.1667 28.1667 37.5 27.5C36.8333 26.8333 36 26.5 35 26.5H31.5C31.2833 26.5 31.1042 26.4292 30.9625 26.2875C30.8208 26.1458 30.75 25.9667 30.75 25.75C30.75 25.5333 30.8208 25.3542 30.9625 25.2125C31.1042 25.0708 31.2833 25 31.5 25H35C36.4167 25 37.6042 25.4792 38.5625 26.4375C39.5208 27.3958 40 28.5833 40 30C40 31.4167 39.5208 32.6042 38.5625 33.5625C37.6042 34.5208 36.4167 35 35 35H31.5Z" fill="#7633FF"/>
</svg>
