<svg width="60" height="96" viewBox="0 0 60 96" fill="none" xmlns="http://www.w3.org/2000/svg">
<circle cx="30" cy="30" r="29.5" stroke="#7633FF"/>
<path d="M11.44 76.512H17.568V78.128H12.944V81.28H17.088V82.896H12.944V86.384H17.568V88H11.44V76.512ZM23.4433 79.824C23.9553 79.824 24.4353 79.9307 24.8833 80.144C25.3313 80.3467 25.7206 80.6773 26.0513 81.136C26.3393 80.7307 26.7019 80.4107 27.1393 80.176C27.5873 79.9413 28.1419 79.824 28.8033 79.824C29.1979 79.824 29.5926 79.8933 29.9873 80.032C30.3926 80.1707 30.7553 80.384 31.0753 80.672C31.3953 80.96 31.6513 81.328 31.8433 81.776C32.0459 82.2133 32.1473 82.7413 32.1473 83.36V88H30.6913V83.424C30.6913 83.0933 30.6379 82.8053 30.5313 82.56C30.4353 82.304 30.2966 82.0907 30.1153 81.92C29.9446 81.7387 29.7419 81.6053 29.5073 81.52C29.2726 81.424 29.0219 81.376 28.7553 81.376C28.5099 81.376 28.2753 81.4133 28.0513 81.488C27.8273 81.5627 27.6193 81.664 27.4273 81.792C27.2459 81.92 27.0913 82.0747 26.9633 82.256C26.8459 82.4373 26.7659 82.6347 26.7233 82.848V88H25.2673V83.424C25.2673 83.0933 25.2139 82.8053 25.1073 82.56C25.0113 82.304 24.8726 82.0907 24.6913 81.92C24.5206 81.7387 24.3179 81.6053 24.0833 81.52C23.8486 81.424 23.5979 81.376 23.3313 81.376C23.0859 81.376 22.8513 81.4133 22.6273 81.488C22.4033 81.5627 22.1953 81.6693 22.0033 81.808C21.8219 81.936 21.6673 82.0907 21.5393 82.272C21.4219 82.4533 21.3419 82.6507 21.2993 82.864V88H19.8433V80.016H21.2513V80.896C21.3579 80.5973 21.6033 80.3467 21.9873 80.144C22.3819 79.9307 22.8673 79.824 23.4433 79.824ZM39.4561 85.168C39.3281 84.944 39.0721 84.7787 38.6881 84.672C38.3041 84.5547 37.8935 84.496 37.4561 84.496C36.8481 84.496 36.3735 84.592 36.0321 84.784C35.7015 84.9653 35.5361 85.2267 35.5361 85.568C35.5361 85.888 35.6961 86.1493 36.0161 86.352C36.3468 86.544 36.8268 86.64 37.4561 86.64C37.6695 86.64 37.8775 86.6187 38.0801 86.576C38.2935 86.5333 38.4908 86.4747 38.6721 86.4C38.8535 86.3253 39.0135 86.2347 39.1521 86.128C39.2908 86.0213 39.3921 85.904 39.4561 85.776V85.168ZM34.5121 81.216C34.8108 80.8 35.2215 80.464 35.7441 80.208C36.2668 79.952 36.8481 79.824 37.4881 79.824C38.5548 79.824 39.3921 80.1013 40.0001 80.656C40.6081 81.2 40.9121 81.968 40.9121 82.96V88H39.5041V87.296C39.4081 87.4347 39.2748 87.5573 39.1041 87.664C38.9335 87.7707 38.7415 87.8667 38.5281 87.952C38.3255 88.0267 38.1121 88.0853 37.8881 88.128C37.6641 88.1707 37.4401 88.192 37.2161 88.192C36.2668 88.192 35.5041 87.968 34.9281 87.52C34.3628 87.0613 34.0801 86.4213 34.0801 85.6C34.0801 85.184 34.1601 84.816 34.3201 84.496C34.4908 84.176 34.7201 83.904 35.0081 83.68C35.2961 83.456 35.6321 83.2907 36.0161 83.184C36.4001 83.0667 36.8161 83.008 37.2641 83.008C37.4455 83.008 37.6375 83.024 37.8401 83.056C38.0535 83.0773 38.2561 83.1147 38.4481 83.168C38.6508 83.2213 38.8375 83.2907 39.0081 83.376C39.1788 83.4507 39.3281 83.5467 39.4561 83.664V83.28C39.4561 82.9493 39.3975 82.6667 39.2801 82.432C39.1628 82.1867 39.0081 81.9893 38.8161 81.84C38.6241 81.68 38.3948 81.5627 38.1281 81.488C37.8721 81.4133 37.6001 81.376 37.3121 81.376C36.8001 81.376 36.3361 81.4773 35.9201 81.68C35.5041 81.8827 35.1735 82.1493 34.9281 82.48L34.5121 81.216ZM43.4366 80.016H44.8926V88H43.4366V80.016ZM43.1006 77.424C43.1006 77.1253 43.202 76.8747 43.4046 76.672C43.618 76.4587 43.8686 76.352 44.1566 76.352C44.4553 76.352 44.706 76.4587 44.9086 76.672C45.122 76.8747 45.2286 77.1253 45.2286 77.424C45.2286 77.712 45.122 77.9627 44.9086 78.176C44.706 78.3787 44.4553 78.48 44.1566 78.48C43.8686 78.48 43.618 78.3787 43.4046 78.176C43.202 77.9627 43.1006 77.712 43.1006 77.424ZM47.4995 76.352H48.9555V88H47.4995V76.352Z" fill="#7633FF"/>
<path d="M21.5 38C21.1 38 20.75 37.85 20.45 37.55C20.15 37.25 20 36.9 20 36.5V23.5C20 23.1 20.15 22.75 20.45 22.45C20.75 22.15 21.1 22 21.5 22H38.5C38.9 22 39.25 22.15 39.55 22.45C39.85 22.75 40 23.1 40 23.5V36.5C40 36.9 39.85 37.25 39.55 37.55C39.25 37.85 38.9 38 38.5 38H21.5ZM38.5 24.875L30.4 30.175C30.3333 30.2083 30.2708 30.2375 30.2125 30.2625C30.1542 30.2875 30.0833 30.3 30 30.3C29.9167 30.3 29.8458 30.2875 29.7875 30.2625C29.7292 30.2375 29.6667 30.2083 29.6 30.175L21.5 24.875V36.5H38.5V24.875ZM30 28.95L38.4 23.5H21.625L30 28.95ZM21.5 24.875V25.05V24.0625V24.075V23.5V24.075V24.05V25.05V24.875V36.5V24.875Z" fill="#7633FF"/>
</svg>
