<svg width="16" height="18" viewBox="0 0 16 18" fill="none" xmlns="http://www.w3.org/2000/svg">
<path d="M11.7139 12.8314C11.5677 12.66 11.4947 12.4714 11.4947 12.2657C11.4947 12.06 11.5677 11.88 11.7139 11.7257L13.5647 9.77143H6.11263C5.90157 9.77143 5.72721 9.6984 5.58953 9.55234C5.4512 9.40697 5.38204 9.22286 5.38204 9C5.38204 8.77714 5.4512 8.59269 5.58953 8.44663C5.72721 8.30126 5.90157 8.22857 6.11263 8.22857H13.5647L11.7139 6.24857C11.5677 6.09429 11.4947 5.91429 11.4947 5.70857C11.4947 5.50286 11.5677 5.32286 11.7139 5.16857C11.86 5.01429 12.0304 4.93714 12.2253 4.93714C12.4201 4.93714 12.5824 5.00571 12.7123 5.14286L15.7565 8.35714C15.8376 8.44286 15.8987 8.54126 15.9396 8.65234C15.9799 8.76411 16 8.88 16 9C16 9.12 15.9799 9.23554 15.9396 9.34663C15.8987 9.4584 15.8376 9.55714 15.7565 9.64286L12.7123 12.8571C12.5662 13.0286 12.4 13.1057 12.2136 13.0886C12.0265 13.0714 11.86 12.9857 11.7139 12.8314ZM1.75342 18C1.26636 18 0.852359 17.82 0.511416 17.46C0.170472 17.1 0 16.6629 0 16.1486V1.85143C0 1.33714 0.170472 0.9 0.511416 0.54C0.852359 0.18 1.26636 0 1.75342 0H7.57382C7.76865 0 7.93912 0.0726856 8.08524 0.218057C8.23135 0.364114 8.30441 0.548571 8.30441 0.771429C8.30441 0.994286 8.23135 1.1784 8.08524 1.32377C7.93912 1.46983 7.76865 1.54286 7.57382 1.54286H1.75342C1.68848 1.54286 1.62354 1.57714 1.5586 1.64571C1.49366 1.71429 1.46119 1.78286 1.46119 1.85143V16.1486C1.46119 16.2171 1.49366 16.2857 1.5586 16.3543C1.62354 16.4229 1.68848 16.4571 1.75342 16.4571H7.57382C7.76865 16.4571 7.93912 16.5298 8.08524 16.6752C8.23135 16.8213 8.30441 17.0057 8.30441 17.2286C8.30441 17.4514 8.23135 17.6359 8.08524 17.7819C7.93912 17.9273 7.76865 18 7.57382 18H1.75342Z" fill="#141414"/>
</svg>
