<svg width="18" height="19" viewBox="0 0 18 19" fill="none" xmlns="http://www.w3.org/2000/svg">
<path d="M10.4799 19H7.49548C7.28172 19 7.09263 18.925 6.9282 18.775C6.76377 18.625 6.66511 18.4333 6.63223 18.2L6.33626 15.95C6.07317 15.8667 5.80614 15.7417 5.53516 15.575C5.26352 15.4083 5.01261 15.2333 4.78241 15.05L2.73527 15.95C2.52151 16.0333 2.31203 16.0417 2.10682 15.975C1.90096 15.9083 1.73226 15.775 1.60071 15.575L0.120855 12.95C0.00575493 12.75 -0.0271307 12.5373 0.0221979 12.312C0.0715265 12.0873 0.178405 11.9083 0.342833 11.775L2.14333 10.4C2.11044 10.25 2.09005 10.1 2.08216 9.95C2.07361 9.8 2.06933 9.65 2.06933 9.5C2.06933 9.36667 2.07361 9.225 2.08216 9.075C2.09005 8.925 2.11044 8.76667 2.14333 8.6L0.342833 7.225C0.178405 7.09167 0.0715265 6.91267 0.0221979 6.688C-0.0271307 6.46267 0.00575493 6.25 0.120855 6.05L1.60071 3.45C1.71581 3.25 1.88024 3.11667 2.094 3.05C2.30776 2.98333 2.51329 2.99167 2.71061 3.075L4.78241 3.95C5.01261 3.76667 5.26352 3.596 5.53516 3.438C5.80614 3.27933 6.07317 3.15 6.33626 3.05L6.63223 0.8C6.66511 0.566667 6.76377 0.375 6.9282 0.225C7.09263 0.0749999 7.28172 0 7.49548 0H10.4799C10.7101 0 10.9074 0.0749999 11.0718 0.225C11.2362 0.375 11.3349 0.566667 11.3678 0.8L11.6637 3.05C11.9597 3.16667 12.2267 3.29567 12.4648 3.437C12.7036 3.579 12.9463 3.75 13.1929 3.95L15.2894 3.075C15.4867 2.99167 15.6883 2.98333 15.8942 3.05C16.0994 3.11667 16.2677 3.25 16.3993 3.45L17.8791 6.05C17.9942 6.25 18.0271 6.46267 17.9778 6.688C17.9285 6.91267 17.8216 7.09167 17.6572 7.225L15.832 8.625C15.8649 8.79167 15.8813 8.94167 15.8813 9.075V9.5C15.8813 9.63333 15.8771 9.77067 15.8685 9.912C15.8606 10.054 15.8402 10.2167 15.8073 10.4L17.6078 11.775C17.7887 11.9083 17.9038 12.0873 17.9531 12.312C18.0025 12.5373 17.9614 12.75 17.8298 12.95L16.35 15.55C16.2349 15.75 16.0704 15.8833 15.8567 15.95C15.6429 16.0167 15.4292 16.0083 15.2154 15.925L13.1929 15.05C12.9463 15.25 12.6957 15.425 12.4412 15.575C12.186 15.725 11.9268 15.85 11.6637 15.95L11.3678 18.2C11.3349 18.4333 11.2362 18.625 11.0718 18.775C10.9074 18.925 10.7101 19 10.4799 19ZM9 12.5C9.82214 12.5 10.521 12.2083 11.0965 11.625C11.672 11.0417 11.9597 10.3333 11.9597 9.5C11.9597 8.66667 11.672 7.95833 11.0965 7.375C10.521 6.79167 9.82214 6.5 9 6.5C8.17786 6.5 7.47903 6.79167 6.90353 7.375C6.32803 7.95833 6.04028 8.66667 6.04028 9.5C6.04028 10.3333 6.32803 11.0417 6.90353 11.625C7.47903 12.2083 8.17786 12.5 9 12.5ZM9 11C8.58893 11 8.23968 10.854 7.95226 10.562C7.66418 10.2707 7.52014 9.91667 7.52014 9.5C7.52014 9.08333 7.66418 8.72933 7.95226 8.438C8.23968 8.146 8.58893 8 9 8C9.41107 8 9.76032 8.146 10.0477 8.438C10.3358 8.72933 10.4799 9.08333 10.4799 9.5C10.4799 9.91667 10.3358 10.2707 10.0477 10.562C9.76032 10.854 9.41107 11 9 11ZM8.01343 17.5H9.96191L10.3072 14.825C10.8169 14.6917 11.2773 14.5 11.6884 14.25C12.0995 14 12.5023 13.6833 12.897 13.3L15.3387 14.35L16.3253 12.65L14.1795 11.025C14.2617 10.7583 14.3153 10.5 14.3403 10.25C14.3646 10 14.3768 9.75 14.3768 9.5C14.3768 9.23333 14.3646 8.97933 14.3403 8.738C14.3153 8.496 14.2617 8.25 14.1795 8L16.3253 6.35L15.3634 4.65L12.8723 5.7C12.5434 5.35 12.1488 5.03733 11.6884 4.762C11.228 4.48733 10.7676 4.29167 10.3072 4.175L9.98657 1.5H8.03809L7.69279 4.175C7.19951 4.29167 6.73911 4.475 6.31159 4.725C5.88408 4.975 5.47301 5.29167 5.07838 5.675L2.63661 4.65L1.67471 6.35L3.79583 7.95C3.71362 8.2 3.65607 8.45 3.62318 8.7C3.5903 8.95 3.57386 9.21667 3.57386 9.5C3.57386 9.76667 3.5903 10.025 3.62318 10.275C3.65607 10.525 3.71362 10.775 3.79583 11.025L1.67471 12.65L2.63661 14.35L5.07838 13.3C5.45656 13.6833 5.85941 14 6.28693 14.25C6.71444 14.5 7.18306 14.6917 7.69279 14.825L8.01343 17.5Z" fill="#141414"/>
</svg>
