<svg width="16" height="16" viewBox="0 0 16 16" fill="none" xmlns="http://www.w3.org/2000/svg">
<path d="M0.729592 15.2704C0.576531 15.1173 0.5 14.9388 0.5 14.7347C0.5 14.5306 0.576531 14.352 0.729592 14.199L12.898 2.03061H6.16327C5.94218 2.03061 5.75935 1.95833 5.6148 1.81378C5.47024 1.66922 5.39796 1.48639 5.39796 1.26531C5.39796 1.04422 5.47024 0.861395 5.6148 0.716837C5.75935 0.572279 5.94218 0.5 6.16327 0.5H14.7347C14.9558 0.5 15.1386 0.572279 15.2832 0.716837C15.4277 0.861395 15.5 1.04422 15.5 1.26531V9.83673C15.5 10.0578 15.4277 10.2406 15.2832 10.3852C15.1386 10.5298 14.9558 10.602 14.7347 10.602C14.5136 10.602 14.3308 10.5298 14.1862 10.3852C14.0417 10.2406 13.9694 10.0578 13.9694 9.83673V3.10204L1.80102 15.2704C1.64796 15.4235 1.46939 15.5 1.26531 15.5C1.06122 15.5 0.882653 15.4235 0.729592 15.2704Z" fill="#141414"/>
</svg>
