<svg width="16" height="16" viewBox="0 0 16 16" fill="none" xmlns="http://www.w3.org/2000/svg">
<path d="M7.175 15.175L0.225 8.225C0.141667 8.14167 0.0833335 8.05833 0.0500002 7.975C0.0166669 7.89167 0 7.8 0 7.7C0 7.6 0.0166669 7.50833 0.0500002 7.425C0.0833335 7.34167 0.141667 7.25833 0.225 7.175L7.2 0.2C7.33333 0.0666665 7.5 0 7.7 0C7.9 0 8.075 0.0749999 8.225 0.225C8.375 0.375 8.45 0.55 8.45 0.75C8.45 0.95 8.375 1.125 8.225 1.275L2.55 6.95H14.95C15.1667 6.95 15.3458 7.02083 15.4875 7.1625C15.6292 7.30417 15.7 7.48333 15.7 7.7C15.7 7.91667 15.6292 8.09583 15.4875 8.2375C15.3458 8.37917 15.1667 8.45 14.95 8.45H2.55L8.25 14.15C8.38333 14.2833 8.45 14.45 8.45 14.65C8.45 14.85 8.375 15.025 8.225 15.175C8.075 15.325 7.9 15.4 7.7 15.4C7.5 15.4 7.325 15.325 7.175 15.175Z" fill="#141414"/>
</svg>
