<svg width="40" height="40" viewBox="0 0 40 40" fill="none" xmlns="http://www.w3.org/2000/svg">
<circle cx="20" cy="20" r="20" fill="#F8F9FA"/>
<path d="M14.05 26.6176C13.8333 26.6176 13.6542 26.5495 13.5125 26.4134C13.3708 26.2773 13.3 26.1051 13.3 25.897V19.1713C13.3 18.9791 13.375 18.815 13.525 18.6789C13.675 18.5428 13.85 18.4747 14.05 18.4747C14.2667 18.4747 14.4458 18.5428 14.5875 18.6789C14.7292 18.815 14.8 18.9871 14.8 19.1953V25.921C14.8 26.1131 14.725 26.2773 14.575 26.4134C14.425 26.5495 14.25 26.6176 14.05 26.6176ZM20.1 26.6176C19.8833 26.6176 19.7042 26.5495 19.5625 26.4134C19.4208 26.2773 19.35 26.1051 19.35 25.897V19.1713C19.35 18.9791 19.425 18.815 19.575 18.6789C19.725 18.5428 19.9 18.4747 20.1 18.4747C20.3167 18.4747 20.4958 18.5428 20.6375 18.6789C20.7792 18.815 20.85 18.9871 20.85 19.1953V25.921C20.85 26.1131 20.775 26.2773 20.625 26.4134C20.475 26.5495 20.3 26.6176 20.1 26.6176ZM10.725 29.5C10.525 29.5 10.3542 29.4279 10.2125 29.2838C10.0708 29.1397 10 28.9716 10 28.7794C10 28.5712 10.0708 28.3991 10.2125 28.263C10.3542 28.1268 10.5333 28.0588 10.75 28.0588H29.275C29.475 28.0588 29.6458 28.1308 29.7875 28.275C29.9292 28.4191 30 28.5872 30 28.7794C30 28.9876 29.9292 29.1597 29.7875 29.2958C29.6458 29.4319 29.4667 29.5 29.25 29.5H10.725ZM25.95 26.6176C25.7333 26.6176 25.5542 26.5495 25.4125 26.4134C25.2708 26.2773 25.2 26.1051 25.2 25.897V19.1713C25.2 18.9791 25.275 18.815 25.425 18.6789C25.575 18.5428 25.75 18.4747 25.95 18.4747C26.1667 18.4747 26.3458 18.5428 26.4875 18.6789C26.6292 18.815 26.7 18.9871 26.7 19.1953V25.921C26.7 26.1131 26.625 26.2773 26.475 26.4134C26.325 26.5495 26.15 26.6176 25.95 26.6176ZM20.75 10.6922L29.45 15.4482C29.6167 15.5282 29.75 15.6443 29.85 15.7965C29.95 15.9486 30 16.1127 30 16.2889C30 16.5131 29.9083 16.6932 29.725 16.8293C29.5417 16.9654 29.3333 17.0335 29.1 17.0335H10.9C10.6667 17.0335 10.4583 16.9654 10.275 16.8293C10.0917 16.6932 10 16.5131 10 16.2889C10 16.1127 10.0542 15.9526 10.1625 15.8085C10.2708 15.6643 10.4083 15.5442 10.575 15.4482L19.25 10.6922C19.4833 10.5641 19.7333 10.5 20 10.5C20.2667 10.5 20.5167 10.5641 20.75 10.6922ZM13.35 15.5923H26.65H13.35ZM13.35 15.5923H26.65L20 11.9412L13.35 15.5923Z" fill="#141414"/>
</svg>
