<svg width="30" height="28" viewBox="0 0 30 28" fill="none" xmlns="http://www.w3.org/2000/svg">
<path d="M2.95703 27.7497C2.39036 27.7497 1.89453 27.5372 1.46953 27.1122C1.04453 26.6872 0.832031 26.1913 0.832031 25.6247V8.62467C0.832031 8.05801 1.04453 7.56217 1.46953 7.13717C1.89453 6.71217 2.39036 6.49967 2.95703 6.49967H9.33203V2.95801C9.33203 2.39134 9.54453 1.89551 9.96953 1.47051C10.3945 1.04551 10.8904 0.833008 11.457 0.833008H18.5404C19.107 0.833008 19.6029 1.04551 20.0279 1.47051C20.4529 1.89551 20.6654 2.39134 20.6654 2.95801V6.49967H27.0404C27.607 6.49967 28.1029 6.71217 28.5279 7.13717C28.9529 7.56217 29.1654 8.05801 29.1654 8.62467V25.6247C29.1654 26.1913 28.9529 26.6872 28.5279 27.1122C28.1029 27.5372 27.607 27.7497 27.0404 27.7497H2.95703ZM2.95703 25.6247H27.0404V8.62467H2.95703V25.6247ZM11.457 6.49967H18.5404V2.95801H11.457V6.49967ZM2.95703 25.6247V8.62467V25.6247Z" fill="#7633FF"/>
</svg>
