<svg width="16" height="10" viewBox="0 0 16 10" fill="none" xmlns="http://www.w3.org/2000/svg">
<path d="M15.142 4.31005C14.6709 4.31005 14.3008 4.68018 14.3008 5.15126V6.8169L9.60683 2.13974C9.28714 1.82005 8.73194 1.82005 8.41224 2.13974L5.7203 4.81477L1.44693 0.541404C1.11047 0.204949 0.588918 0.204949 0.252342 0.541404C-0.084114 0.87786 -0.084114 1.39941 0.252342 1.73599L5.13139 6.61503C5.45108 6.93473 6.00628 6.93473 6.32597 6.61503L9.00112 3.92309L13.1063 8.02822H11.4406C10.9695 8.02822 10.5994 8.39835 10.5994 8.86943C10.5994 9.34051 10.9695 9.71064 11.4406 9.71064H15.1588C15.6299 9.71064 16 9.34051 16 8.86943V5.15126C15.9832 4.68018 15.6131 4.31005 15.142 4.31005H15.142Z" fill="#9764FF"/>
</svg>
