<svg width="14" height="14" viewBox="0 0 14 14" fill="none" xmlns="http://www.w3.org/2000/svg">
<path d="M7.24375 8.1541L1.99375 13.4041C1.84375 13.5541 1.66875 13.6291 1.46875 13.6291C1.26875 13.6291 1.09375 13.5541 0.94375 13.4041C0.79375 13.2541 0.71875 13.0791 0.71875 12.8791C0.71875 12.6791 0.79375 12.5041 0.94375 12.3541L6.19375 7.1041L0.94375 1.8541C0.79375 1.7041 0.71875 1.5291 0.71875 1.3291C0.71875 1.1291 0.79375 0.954101 0.94375 0.804101C1.09375 0.654101 1.26875 0.579102 1.46875 0.579102C1.66875 0.579102 1.84375 0.654101 1.99375 0.804101L7.24375 6.0541L12.4937 0.804101C12.6437 0.654101 12.8187 0.579102 13.0187 0.579102C13.2187 0.579102 13.3937 0.654101 13.5437 0.804101C13.6937 0.954101 13.7687 1.1291 13.7687 1.3291C13.7687 1.5291 13.6937 1.7041 13.5437 1.8541L8.29375 7.1041L13.5437 12.3541C13.6937 12.5041 13.7687 12.6791 13.7687 12.8791C13.7687 13.0791 13.6937 13.2541 13.5437 13.4041C13.3937 13.5541 13.2187 13.6291 13.0187 13.6291C12.8187 13.6291 12.6437 13.5541 12.4937 13.4041L7.24375 8.1541Z" fill="#141414"/>
</svg>
