<svg width="12" height="7" viewBox="0 0 12 7" fill="none" xmlns="http://www.w3.org/2000/svg">
<path d="M0.238158 6.225C0.0881581 6.075 0.00899123 5.9 0.000657894 5.7C-0.00767544 5.5 0.063158 5.325 0.213158 5.175L5.16316 0.224999C5.24649 0.141666 5.32982 0.0833326 5.41316 0.0499992C5.49649 0.0166659 5.58816 0 5.68816 0C5.78816 0 5.87982 0.0166659 5.96316 0.0499992C6.04649 0.0833326 6.12982 0.141666 6.21316 0.224999L11.1632 5.15C11.3132 5.28333 11.3882 5.45417 11.3882 5.6625C11.3882 5.87083 11.3132 6.05 11.1632 6.2C11.0132 6.35 10.834 6.425 10.6257 6.425C10.4173 6.425 10.2382 6.35 10.0882 6.2L5.68816 1.825L1.28816 6.25C1.15482 6.4 0.983991 6.47083 0.775658 6.4625C0.567325 6.45417 0.388158 6.375 0.238158 6.225Z" fill="#141414"/>
</svg>
