<svg width="7" height="12" viewBox="0 0 7 12" fill="none" xmlns="http://www.w3.org/2000/svg">
<path d="M0.213236 11.2131C0.0799025 11.0464 0.00906863 10.8631 0.000735294 10.6631C-0.00759804 10.4631 0.0632359 10.2881 0.213236 10.1381L4.61324 5.7381L0.188235 1.3131C0.054902 1.17976 -0.00759804 1.00059 0.000735294 0.775595C0.00906863 0.550595 0.0799025 0.371428 0.213236 0.238095C0.379903 0.0714283 0.559069 -0.00773809 0.750735 0.00059524C0.942402 0.00892857 1.11324 0.0880949 1.26324 0.238095L6.23824 5.21309C6.32157 5.29643 6.3799 5.37976 6.41324 5.46309C6.44657 5.54643 6.46324 5.6381 6.46324 5.7381C6.46324 5.8381 6.44657 5.92976 6.41324 6.01309C6.3799 6.09643 6.32157 6.17976 6.23824 6.26309L1.28824 11.2131C1.13824 11.3631 0.963235 11.4339 0.763235 11.4256C0.563235 11.4173 0.379903 11.3464 0.213236 11.2131Z" fill="#141414"/>
</svg>
