<svg width="12" height="7" viewBox="0 0 12 7" fill="none" xmlns="http://www.w3.org/2000/svg">
<path d="M5.66323 6.46739C5.56323 6.46739 5.47157 6.45072 5.38824 6.41739C5.3049 6.38406 5.22157 6.32573 5.13824 6.24239L0.188235 1.29239C0.054902 1.15906 -0.00759804 0.979891 0.000735294 0.754891C0.00906863 0.529891 0.079902 0.350724 0.213235 0.217391C0.379902 0.0507243 0.559069 -0.0201087 0.750735 0.00489132C0.942402 0.0298913 1.11323 0.109058 1.26323 0.242392L5.66323 4.64239L10.0632 0.242392C10.1966 0.109058 10.3757 0.0340578 10.6007 0.0173911C10.8257 0.000724465 11.0049 0.0757248 11.1382 0.242392C11.3049 0.375725 11.3757 0.550725 11.3507 0.767391C11.3257 0.984058 11.2466 1.16739 11.1132 1.31739L6.18823 6.24239C6.1049 6.32573 6.02157 6.38406 5.93823 6.41739C5.8549 6.45072 5.76323 6.46739 5.66323 6.46739Z" fill="#141414"/>
</svg>
