<svg width="56" height="56" viewBox="0 0 56 56" fill="none" xmlns="http://www.w3.org/2000/svg">
<rect x="0.5" y="0.5" width="55" height="55" rx="3.5" fill="white" stroke="#E4E4E5"/>
<path d="M28 16C21.3724 16 16 21.3724 16 28C16 34.6276 21.3724 40 28 40C34.6276 40 40 34.6276 40 28C40 21.3724 34.6276 16 28 16Z" fill="url(#paint0_linear_3007_24221)"/>
<path d="M28.5779 30.0926H31.5973L32.0715 27.0254H28.5779V25.3489C28.5779 24.0749 28.9944 22.945 30.1862 22.945H32.1013V20.2687C31.7647 20.2232 31.053 20.124 29.7084 20.124C26.9003 20.124 25.2541 21.6069 25.2541 24.9855V27.026H22.3672V30.0932H25.2535V38.5235C25.8252 38.6087 26.4044 38.667 26.9989 38.667C27.5361 38.667 28.0605 38.618 28.5779 38.548V30.0926Z" fill="white"/>
<defs>
<linearGradient id="paint0_linear_3007_24221" x1="19.5958" y1="19.5958" x2="37.969" y2="37.969" gradientUnits="userSpaceOnUse">
<stop stop-color="#2AA4F4"/>
<stop offset="1" stop-color="#007AD9"/>
</linearGradient>
</defs>
</svg>