<svg width="24" height="24" viewBox="0 0 24 24" fill="none" xmlns="http://www.w3.org/2000/svg">
<path fill-rule="evenodd" clip-rule="evenodd" d="M8.4004 4.6998C8.05558 4.6998 7.72488 4.83679 7.48105 5.08061C7.23722 5.32444 7.10024 5.65514 7.10024 5.99997C7.10024 6.3448 7.23722 6.6755 7.48105 6.91933C7.72488 7.16315 8.05558 7.30014 8.4004 7.30014H11.0677C10.962 7.00697 10.8205 6.67035 10.6373 6.33731C10.1282 5.41173 9.41125 4.6998 8.4004 4.6998ZM8.4004 8.70014C8.04727 8.70014 7.70126 8.63096 7.38051 8.50011H4.5V11.5004H5.11023C5.23649 11.3767 5.4094 11.3004 5.60013 11.3004C5.79086 11.3004 5.96377 11.3767 6.09002 11.5004H11.3006V8.70014H8.4004ZM4 7.50011H6.15529C5.86076 7.05931 5.70024 6.53792 5.70024 5.99997C5.70024 5.28384 5.98472 4.59704 6.4911 4.09066C6.99748 3.58429 7.68427 3.2998 8.4004 3.2998C10.1898 3.2998 11.273 4.58805 11.864 5.66263C12.0836 6.06195 12.251 6.45787 12.3753 6.79912C12.8463 5.62087 13.8184 3.9998 15.6009 3.9998C16.1314 3.9998 16.6402 4.21054 17.0153 4.58564C17.3904 4.96074 17.6011 5.46949 17.6011 5.99997C17.6011 6.53045 17.3904 7.0392 17.0153 7.4143C16.9856 7.44394 16.9552 7.47255 16.9239 7.50011H20.0013C20.2775 7.50011 20.5013 7.72397 20.5013 8.00011V12.0004C20.5013 12.2766 20.2775 12.5004 20.0013 12.5004H19.1012V20.0011C19.1012 20.3877 18.7878 20.7011 18.4012 20.7011H5.60013C5.21353 20.7011 4.90013 20.3877 4.90013 20.0011V12.5004H4C3.72386 12.5004 3.5 12.2766 3.5 12.0004V8.00011C3.5 7.72397 3.72386 7.50011 4 7.50011ZM12.7006 11.5004V8.50011H19.5013V11.5004H18.8911C18.7648 11.3767 18.5919 11.3004 18.4012 11.3004C18.2105 11.3004 18.0375 11.3767 17.9113 11.5004H12.7006ZM11.3006 12.5004H6.30013V19.3011H11.3006V12.5004ZM12.7006 19.3011V12.5004H17.7012V19.3011H12.7006Z" fill="#A5A8AC"/>
</svg>
