<svg width="56" height="56" viewBox="0 0 56 56" fill="none" xmlns="http://www.w3.org/2000/svg">
<rect x="0.5" y="0.5" width="55" height="55" rx="3.5" fill="white" stroke="#E4E4E5"/>
<path d="M39.4384 25.7148H38.4987V25.6663H27.9987V30.333H34.5921C33.6302 33.0496 31.0454 34.9997 27.9987 34.9997C24.1329 34.9997 20.9987 31.8654 20.9987 27.9997C20.9987 24.1339 24.1329 20.9997 27.9987 20.9997C29.7831 20.9997 31.4065 21.6728 32.6426 22.7724L35.9425 19.4725C33.8589 17.5306 31.0717 16.333 27.9987 16.333C21.5558 16.333 16.332 21.5568 16.332 27.9997C16.332 34.4426 21.5558 39.6663 27.9987 39.6663C34.4416 39.6663 39.6654 34.4426 39.6654 27.9997C39.6654 27.2174 39.5849 26.4538 39.4384 25.7148Z" fill="#FFC107"/>
<path d="M17.6797 22.5694L21.5128 25.3805C22.5499 22.8127 25.0618 20.9997 28.0012 20.9997C29.7856 20.9997 31.409 21.6728 32.6451 22.7724L35.945 19.4725C33.8614 17.5306 31.0742 16.333 28.0012 16.333C23.52 16.333 19.6339 18.8629 17.6797 22.5694Z" fill="#FF3D00"/>
<path d="M27.9995 39.6671C31.013 39.6671 33.7512 38.5138 35.8214 36.6384L32.2106 33.5829C31.0393 34.4702 29.5833 35.0004 27.9995 35.0004C24.965 35.0004 22.3884 33.0655 21.4178 30.3652L17.6133 33.2965C19.5441 37.0747 23.4653 39.6671 27.9995 39.6671Z" fill="#4CAF50"/>
<path d="M39.4398 25.7154H38.5V25.667H28V30.3337H34.5934C34.1314 31.6386 33.292 32.7638 32.2093 33.5834C32.2099 33.5828 32.2105 33.5828 32.2111 33.5822L35.8219 36.6377C35.5664 36.8699 39.6667 33.8337 39.6667 28.0003C39.6667 27.2181 39.5862 26.4545 39.4398 25.7154Z" fill="#1976D2"/>
</svg>