<svg width="40" height="40" viewBox="0 0 40 40" fill="none" xmlns="http://www.w3.org/2000/svg">
<circle cx="20" cy="20" r="19.5" stroke="#E4E4E5"/>
<path d="M20.0054 17.7496H23.9654C24.1476 17.7496 24.3254 17.767 24.4975 17.8008V16.3456C24.4975 15.5693 25.1264 14.9393 25.9021 14.9393H26.5512C26.6615 14.9393 26.7515 14.8493 26.7515 14.7391V14.0849C26.7515 13.9341 26.8735 13.8121 27.0237 13.8121C27.494 13.8121 27.8748 14.1934 27.8748 14.6637V15.7825C27.8748 16.5588 27.2459 17.1888 26.4702 17.1888H25.8216C25.7953 17.1888 25.7693 17.1939 25.745 17.204C25.7207 17.2141 25.6986 17.2288 25.68 17.2474C25.6615 17.266 25.6467 17.2881 25.6366 17.3124C25.6266 17.3367 25.6214 17.3627 25.6214 17.389V18.3008C25.9658 18.5586 26.2453 18.8931 26.4376 19.2779C26.63 19.6626 26.73 20.0869 26.7295 20.5171V24.5558C26.7295 24.8837 26.618 25.2019 26.4134 25.4581L24.5943 27.7351C24.5596 27.7786 24.5155 27.8138 24.4654 27.8379C24.4152 27.8621 24.3603 27.8746 24.3046 27.8746H23.62C23.5958 27.8746 23.572 27.8679 23.5514 27.8552C23.5308 27.8424 23.5141 27.8242 23.5032 27.8026C23.4924 27.7809 23.4877 27.7566 23.4899 27.7325C23.492 27.7084 23.5009 27.6853 23.5154 27.6659L24.7748 25.9846C24.9897 25.6981 25.0819 25.3381 25.0313 24.9837C24.9806 24.6292 24.7913 24.3094 24.5048 24.0946L23.0918 23.0331C22.9008 22.8896 22.6682 22.812 22.4292 22.8121H17.927C17.5468 22.8125 17.1705 22.7348 16.8216 22.5837C16.7947 22.5722 16.7649 22.569 16.7361 22.5746C16.7073 22.5802 16.6809 22.5944 16.6602 22.6152L16.1652 23.1102C16.1299 23.1455 16.102 23.1876 16.0832 23.2339C16.0645 23.2803 16.0553 23.3299 16.0561 23.3799C16.0569 23.4298 16.0678 23.4791 16.0881 23.5248C16.1084 23.5705 16.1377 23.6116 16.1742 23.6457L16.8841 24.3623C16.9722 24.4502 17.0915 24.4996 17.216 24.4996H17.473C17.6215 24.4996 17.7419 24.6205 17.7419 24.769V25.3557C17.7419 25.3911 17.7349 25.4261 17.7214 25.4587C17.7078 25.4914 17.688 25.521 17.6629 25.546C17.6379 25.571 17.6082 25.5908 17.5755 25.6043C17.5428 25.6177 17.5078 25.6246 17.4725 25.6246H17.216C17.0067 25.6252 16.7994 25.5842 16.6061 25.5041C16.4128 25.4239 16.2373 25.3062 16.0898 25.1577L15.3895 24.4512C15.1018 24.1672 14.9379 23.7811 14.9333 23.3768C14.9324 23.1796 14.9707 22.9842 15.0459 22.8019C15.1211 22.6196 15.2318 22.454 15.3715 22.3148L15.7321 21.9531C15.7576 21.9275 15.7727 21.8934 15.7747 21.8573C15.7767 21.8212 15.7653 21.7856 15.7428 21.7574C15.4308 21.3654 15.2302 20.8965 15.1623 20.4001L14.5379 15.8748C14.5344 15.8496 14.5253 15.8256 14.5111 15.8045C14.497 15.7834 14.4782 15.7658 14.4562 15.7531C14.4343 15.7403 14.4097 15.7328 14.3844 15.7309C14.3591 15.7291 14.3336 15.7331 14.3101 15.7426L13.5068 16.0666L12.7908 14.7784L13.6784 13.8166H13.2245C13.2046 13.8165 13.185 13.8121 13.1669 13.8037C13.1489 13.7954 13.1329 13.7832 13.12 13.7681C13.1071 13.753 13.0975 13.7353 13.0921 13.7162C13.0866 13.6971 13.0853 13.677 13.0883 13.6574C13.1264 13.3883 13.2603 13.142 13.4654 12.9637C13.6706 12.7855 13.9331 12.6872 14.2049 12.6871H14.6099V12.2764C14.61 12.2493 14.6173 12.2226 14.6312 12.1992C14.6451 12.1759 14.665 12.1567 14.6889 12.1436C14.7127 12.1306 14.7396 12.1242 14.7668 12.1251C14.794 12.126 14.8204 12.1342 14.8433 12.1488L15.56 12.6854H18.5001C18.6323 12.6854 18.7398 12.7928 18.7398 12.9256C18.7398 13.2985 18.5457 13.6253 18.2532 13.8115H19.754C19.889 13.8115 19.9986 13.9218 19.9986 14.0568C19.999 14.3425 19.9285 14.6239 19.7934 14.8757C19.6584 15.1275 19.4629 15.3419 19.2246 15.4996H20.677C20.8053 15.4996 20.9088 15.6036 20.9088 15.7319C20.9092 16.142 20.7978 16.5444 20.5866 16.896C20.3754 17.2475 20.0724 17.5349 19.7101 17.7271C19.8068 17.7417 19.9058 17.7496 20.006 17.7496H20.0054ZM14.656 14.6856C14.7306 14.6856 14.8022 14.656 14.8549 14.6033C14.9076 14.5505 14.9373 14.479 14.9373 14.4044V14.0933C14.939 14.0554 14.933 14.0175 14.9196 13.9819C14.9063 13.9463 14.8858 13.9138 14.8596 13.8864C14.8333 13.8589 14.8018 13.8371 14.7668 13.8221C14.7319 13.8072 14.6943 13.7995 14.6563 13.7995C14.6183 13.7995 14.5807 13.8072 14.5458 13.8221C14.5108 13.8371 14.4793 13.8589 14.453 13.8864C14.4268 13.9138 14.4064 13.9463 14.393 13.9819C14.3796 14.0175 14.3736 14.0554 14.3753 14.0933V14.4049C14.3753 14.4795 14.405 14.5511 14.4577 14.6038C14.5105 14.6566 14.582 14.6862 14.6566 14.6862L14.656 14.6856Z" fill="#141414"/>
<path d="M12.5899 14.9961L12.2845 15.328C12.2197 15.398 12.1725 15.4824 12.1468 15.5742C12.1211 15.6661 12.1176 15.7627 12.1365 15.8562C12.2153 16.2426 12.5978 16.4344 12.9634 16.2865L13.2441 16.1734L12.5899 14.9961ZM14.539 19.9995H14.179C13.9824 19.9996 13.7878 20.0384 13.6063 20.1137C13.4247 20.189 13.2598 20.2993 13.1209 20.4384C12.982 20.5774 12.8719 20.7425 12.7968 20.9241C12.7217 21.1057 12.6831 21.3004 12.6833 21.4969V22.8244C12.6833 23.2502 12.8492 23.6507 13.1501 23.9517L13.3706 24.1722C13.3905 24.1921 13.4141 24.2078 13.44 24.2186C13.466 24.2294 13.4938 24.2349 13.522 24.2349C13.5501 24.2349 13.5779 24.2294 13.6039 24.2186C13.6298 24.2078 13.6534 24.1921 13.6733 24.1722L14.1643 23.6794C14.2044 23.6392 14.2269 23.5848 14.2269 23.5281C14.2269 23.4714 14.2044 23.417 14.1643 23.3768L13.9438 23.1563C13.8561 23.0681 13.8067 22.9488 13.8066 22.8244V21.4969C13.8066 21.291 13.9736 21.1245 14.179 21.1245H14.7606C14.6873 20.9144 14.6351 20.6975 14.6048 20.4771L14.539 19.9995ZM21.6737 23.3751V24.036C21.6737 24.1067 21.6597 24.1767 21.6326 24.2419C21.6054 24.3072 21.5657 24.3664 21.5156 24.4163L21.0195 24.9102C20.8702 25.059 20.7519 25.2359 20.6714 25.4308C20.5908 25.6256 20.5497 25.8345 20.5504 26.0453V26.5723C20.5504 26.6702 20.6291 26.7501 20.7276 26.7501H21.4965C21.5436 26.7499 21.5886 26.7312 21.6218 26.6978C21.6551 26.6645 21.6737 26.6194 21.6737 26.5723V26.0447C21.6737 25.9176 21.7243 25.7955 21.8143 25.7055L23.485 24.0327L22.7537 23.4837C22.6601 23.4132 22.5462 23.3751 22.4291 23.3751H21.6737Z" fill="#141414"/>
</svg>
