<svg width="184" height="60" viewBox="0 0 184 60" fill="none" xmlns="http://www.w3.org/2000/svg">
<g clip-path="url(#clip0_9723_4125)">
<path d="M98.1949 42.0007H85.8042C85.678 42.0008 85.553 41.9761 85.4364 41.9278C85.3198 41.8796 85.2138 41.8088 85.1246 41.7196C85.0354 41.6303 84.9646 41.5244 84.9164 41.4078C84.8681 41.2912 84.8433 41.1662 84.8434 41.04V31.872C84.8434 31.341 85.2732 30.9075 85.8042 30.9075H86.9682V29.427C86.9682 26.6535 89.2257 24.396 91.9992 24.396C94.7727 24.396 97.0302 26.6535 97.0302 29.427V30.9075H98.1942C98.7252 30.9075 99.1549 31.341 99.1549 31.872V41.04C99.155 41.1662 99.1302 41.2912 99.082 41.4078C99.0337 41.5244 98.963 41.6303 98.8738 41.7196C98.7845 41.8088 98.6786 41.8796 98.562 41.9278C98.4453 41.9761 98.3204 42.0008 98.1942 42.0007H98.1949ZM92.6292 36.9307C93.7699 36.2865 93.3124 34.5443 91.9999 34.5443C90.6912 34.548 90.2344 36.2827 91.3707 36.9307V38.1727C91.3707 39.009 92.6284 39.009 92.6284 38.1727L92.6292 36.9307ZM89.8557 30.9067H94.1487V29.4263C94.1487 28.2428 93.1842 27.282 91.9999 27.282C90.8157 27.282 89.8557 28.2428 89.8557 29.4263V30.9067ZM84.5472 29.544H81.5592C81.0709 29.544 80.6802 29.1495 80.6802 28.665C80.6802 28.1805 81.0709 27.786 81.5592 27.786H84.5472C85.0317 27.786 85.4262 28.1805 85.4262 28.665C85.4262 29.1495 85.0317 29.544 84.5472 29.544ZM86.6524 24.8408C86.4491 24.8411 86.2524 24.7691 86.0974 24.6375L83.7304 22.692C83.6414 22.6188 83.5678 22.5287 83.5137 22.427C83.4596 22.3252 83.4262 22.2138 83.4153 22.0991C83.4044 21.9844 83.4163 21.8686 83.4503 21.7585C83.4843 21.6484 83.5398 21.5461 83.6134 21.4575C83.6864 21.3682 83.7762 21.2942 83.8778 21.2398C83.9795 21.1854 84.0908 21.1516 84.2056 21.1404C84.3203 21.1292 84.4361 21.1407 84.5464 21.1744C84.6566 21.2081 84.7591 21.2633 84.8479 21.3368L87.2149 23.2822C87.8517 23.8057 87.4767 24.8408 86.6524 24.837V24.8408ZM91.9999 22.77C91.7669 22.7696 91.5436 22.6769 91.3788 22.5121C91.2141 22.3474 91.1213 22.124 91.1209 21.891V18.879C91.1209 18.3945 91.5154 18 91.9999 18C92.4844 18 92.8789 18.3945 92.8789 18.879V21.891C92.8789 22.3755 92.4844 22.77 91.9999 22.77ZM97.3474 24.8408C96.5194 24.8408 96.1482 23.8057 96.7849 23.2822L99.1519 21.3368C100.058 20.5942 101.172 21.9503 100.269 22.6965L97.9024 24.642C97.7463 24.7711 97.55 24.8416 97.3474 24.8415V24.8408ZM102.441 29.544H99.4257C98.9374 29.544 98.5467 29.1495 98.5467 28.665C98.5467 28.1805 98.9374 27.786 99.4257 27.786H102.441C102.93 27.786 103.32 28.1805 103.32 28.665C103.32 29.1495 102.93 29.544 102.441 29.544Z" fill="#E4D6FF"/>
</g>
<path d="M60.5 30H80" stroke="#E4E4E5" stroke-dasharray="1 1"/>
<path d="M104 30H123.5" stroke="#E4E4E5" stroke-dasharray="1 1"/>
<circle cx="154" cy="30" r="29.5" stroke="#E4E4E5"/>
<path d="M154.007 26.9994H159.287C159.53 26.9994 159.767 27.0227 159.997 27.0677V25.1274C159.997 24.0924 160.835 23.2524 161.869 23.2524H162.735C162.882 23.2524 163.002 23.1324 163.002 22.9854V22.1132C163.002 21.9122 163.165 21.7494 163.365 21.7494C163.992 21.7494 164.5 22.2579 164.5 22.8849V24.3767C164.5 25.4117 163.661 26.2517 162.627 26.2517H161.762C161.727 26.2517 161.692 26.2586 161.66 26.272C161.628 26.2854 161.598 26.3051 161.573 26.3299C161.549 26.3547 161.529 26.3841 161.516 26.4165C161.502 26.4489 161.495 26.4836 161.495 26.5187V27.7344C161.954 28.0781 162.327 28.5241 162.584 29.0371C162.84 29.5501 162.973 30.1159 162.973 30.6894V36.0744C162.973 36.5116 162.824 36.9358 162.551 37.2774L160.126 40.3134C160.079 40.3715 160.021 40.4184 159.954 40.4506C159.887 40.4828 159.814 40.4995 159.739 40.4994H158.827C158.794 40.4995 158.763 40.4905 158.735 40.4735C158.708 40.4566 158.685 40.4323 158.671 40.4034C158.656 40.3745 158.65 40.3422 158.653 40.31C158.656 40.2778 158.668 40.2471 158.687 40.2212L160.366 37.9794C160.653 37.5975 160.776 37.1175 160.708 36.6449C160.641 36.1723 160.388 35.7459 160.006 35.4594L158.122 34.0442C157.868 33.8528 157.558 33.7493 157.239 33.7494H151.236C150.729 33.75 150.227 33.6464 149.762 33.4449C149.726 33.4295 149.686 33.4253 149.648 33.4328C149.61 33.4403 149.574 33.4592 149.547 33.4869L148.887 34.1469C148.84 34.194 148.803 34.2501 148.778 34.3119C148.753 34.3737 148.74 34.4399 148.741 34.5065C148.743 34.5731 148.757 34.6388 148.784 34.6997C148.811 34.7606 148.85 34.8154 148.899 34.8609L149.845 35.8164C149.963 35.9336 150.122 35.9995 150.288 35.9994H150.631C150.829 35.9994 150.989 36.1607 150.989 36.3587V37.1409C150.989 37.1881 150.98 37.2348 150.962 37.2783C150.944 37.3218 150.917 37.3614 150.884 37.3947C150.851 37.428 150.811 37.4544 150.767 37.4724C150.724 37.4903 150.677 37.4995 150.63 37.4994H150.288C150.009 37.5002 149.733 37.4456 149.475 37.3388C149.217 37.2319 148.983 37.0749 148.786 36.8769L147.853 35.9349C147.469 35.5562 147.251 35.0414 147.244 34.5024C147.243 34.2395 147.294 33.9789 147.395 33.7358C147.495 33.4928 147.642 33.272 147.829 33.0864L148.309 32.6042C148.343 32.57 148.364 32.5245 148.366 32.4764C148.369 32.4283 148.354 32.3809 148.324 32.3432C147.908 31.8205 147.64 31.1953 147.55 30.5334L146.717 24.4997C146.713 24.4661 146.7 24.4341 146.681 24.406C146.663 24.3779 146.638 24.3544 146.608 24.3374C146.579 24.3204 146.546 24.3104 146.513 24.3079C146.479 24.3055 146.445 24.3108 146.413 24.3234L145.342 24.7554L144.388 23.0379L145.571 21.7554H144.966C144.939 21.7553 144.913 21.7495 144.889 21.7383C144.865 21.7272 144.844 21.711 144.827 21.6908C144.809 21.6707 144.797 21.6471 144.789 21.6216C144.782 21.5961 144.78 21.5694 144.784 21.5432C144.835 21.1844 145.014 20.856 145.287 20.6183C145.561 20.3806 145.911 20.2497 146.273 20.2494H146.813V19.7019C146.813 19.6657 146.823 19.6301 146.842 19.599C146.86 19.5678 146.887 19.5422 146.919 19.5248C146.95 19.5074 146.986 19.4989 147.022 19.5001C147.059 19.5013 147.094 19.5122 147.124 19.5317L148.08 20.2472H152C152.176 20.2472 152.32 20.3904 152.32 20.5674C152.32 21.0647 152.061 21.5004 151.671 21.7487H153.672C153.852 21.7487 153.998 21.8957 153.998 22.0757C153.999 22.4567 153.905 22.8319 153.725 23.1676C153.544 23.5033 153.284 23.7891 152.966 23.9994H154.903C155.074 23.9994 155.212 24.1382 155.212 24.3092C155.212 24.856 155.064 25.3926 154.782 25.8613C154.5 26.33 154.096 26.7131 153.613 26.9694C153.742 26.9889 153.874 26.9994 154.008 26.9994H154.007ZM146.875 22.9142C146.974 22.9142 147.07 22.8747 147.14 22.8043C147.21 22.734 147.25 22.6386 147.25 22.5392V22.1244C147.252 22.0738 147.244 22.0233 147.226 21.9759C147.208 21.9284 147.181 21.8851 147.146 21.8485C147.111 21.8119 147.069 21.7827 147.022 21.7628C146.976 21.7429 146.926 21.7327 146.875 21.7327C146.824 21.7327 146.774 21.7429 146.728 21.7628C146.681 21.7827 146.639 21.8119 146.604 21.8485C146.569 21.8851 146.542 21.9284 146.524 21.9759C146.506 22.0233 146.498 22.0738 146.5 22.1244V22.5399C146.5 22.6394 146.54 22.7348 146.61 22.8051C146.681 22.8754 146.776 22.9149 146.875 22.9149L146.875 22.9142Z" fill="#141414"/>
<path d="M144.12 23.3281L143.713 23.7706C143.626 23.864 143.564 23.9765 143.529 24.099C143.495 24.2214 143.49 24.3503 143.516 24.4749C143.621 24.9901 144.131 25.2459 144.618 25.0486L144.992 24.8979L144.12 23.3281ZM146.719 29.9994H146.239C145.977 29.9995 145.717 30.0512 145.475 30.1516C145.233 30.252 145.013 30.3991 144.828 30.5845C144.643 30.7699 144.496 30.99 144.396 31.2321C144.296 31.4743 144.244 31.7338 144.245 31.9959V33.7659C144.245 34.3336 144.466 34.8676 144.867 35.2689L145.161 35.5629C145.187 35.5894 145.219 35.6105 145.254 35.6248C145.288 35.6392 145.325 35.6466 145.363 35.6466C145.4 35.6466 145.437 35.6392 145.472 35.6248C145.507 35.6105 145.538 35.5894 145.565 35.5629L146.219 34.9059C146.273 34.8523 146.303 34.7798 146.303 34.7041C146.303 34.6285 146.273 34.5559 146.219 34.5024L145.925 34.2084C145.808 34.0908 145.742 33.9317 145.742 33.7659V31.9959C145.742 31.7214 145.965 31.4994 146.239 31.4994H147.014C146.917 31.2192 146.847 30.93 146.807 30.6361L146.719 29.9994ZM156.232 34.5001V35.3814C156.232 35.4756 156.213 35.5689 156.177 35.6559C156.141 35.7429 156.088 35.8219 156.021 35.8884L155.36 36.5469C155.16 36.7453 155.003 36.9813 154.895 37.241C154.788 37.5008 154.733 37.7793 154.734 38.0604V38.7631C154.734 38.8936 154.839 39.0001 154.97 39.0001H155.996C156.058 38.9999 156.118 38.9749 156.163 38.9304C156.207 38.886 156.232 38.8259 156.232 38.7631V38.0596C156.232 37.8901 156.299 37.7274 156.419 37.6074L158.647 35.3769L157.672 34.6449C157.547 34.551 157.395 34.5002 157.239 34.5001H156.232Z" fill="#141414"/>
<circle cx="30" cy="30" r="29.5" fill="#E4D6FF" stroke="#9764FF"/>
<path d="M25.4043 25.3042L19.5 30.6083H29.5377L30.5856 28.2979H25.4999L28.6809 25.3042L26.8334 22.3115H35.4622L27.4992 40H30.4901L39.5 20H22.0906L25.4043 25.3042Z" fill="#7633FF"/>
<defs>
<clipPath id="clip0_9723_4125">
<rect width="24" height="24" fill="white" transform="translate(80 18)"/>
</clipPath>
</defs>
</svg>
