<svg width="24" height="23" viewBox="0 0 24 23" fill="none" xmlns="http://www.w3.org/2000/svg">
<path d="M12.0013 11.292C10.443 11.292 9.16797 10.7962 8.1763 9.80449C7.18464 8.81283 6.6888 7.53783 6.6888 5.97949C6.6888 4.42116 7.18464 3.14616 8.1763 2.15449C9.16797 1.16283 10.443 0.666992 12.0013 0.666992C13.5596 0.666992 14.8346 1.16283 15.8263 2.15449C16.818 3.14616 17.3138 4.42116 17.3138 5.97949C17.3138 7.53783 16.818 8.81283 15.8263 9.80449C14.8346 10.7962 13.5596 11.292 12.0013 11.292ZM21.2096 22.6607H2.79297C2.20269 22.6607 1.70095 22.4541 1.28776 22.0409C0.874566 21.6278 0.667969 21.126 0.667969 20.5357V19.3316C0.667969 18.4344 0.892274 17.667 1.34089 17.0295C1.7895 16.392 2.36797 15.908 3.0763 15.5774C4.65825 14.8691 6.17526 14.3378 7.62734 13.9837C9.07943 13.6295 10.5374 13.4524 12.0013 13.4524C13.4652 13.4524 14.9173 13.6354 16.3576 14.0014C17.7978 14.3673 19.3089 14.8927 20.8909 15.5774C21.6228 15.908 22.2131 16.392 22.6617 17.0295C23.1103 17.667 23.3346 18.4344 23.3346 19.3316V20.5357C23.3346 21.126 23.128 21.6278 22.7148 22.0409C22.3017 22.4541 21.7999 22.6607 21.2096 22.6607ZM2.79297 20.5357H21.2096V19.3316C21.2096 18.9538 21.0975 18.5937 20.8732 18.2514C20.6489 17.909 20.3714 17.6552 20.0409 17.4899C18.5298 16.758 17.1485 16.2562 15.8971 15.9847C14.6457 15.7132 13.3471 15.5774 12.0013 15.5774C10.6555 15.5774 9.34505 15.7132 8.07005 15.9847C6.79505 16.2562 5.4138 16.758 3.9263 17.4899C3.59575 17.6552 3.32422 17.909 3.11172 18.2514C2.89922 18.5937 2.79297 18.9538 2.79297 19.3316V20.5357ZM12.0013 9.16699C12.9221 9.16699 13.6836 8.86595 14.2857 8.26387C14.8878 7.66178 15.1888 6.90033 15.1888 5.97949C15.1888 5.05866 14.8878 4.2972 14.2857 3.69512C13.6836 3.09303 12.9221 2.79199 12.0013 2.79199C11.0805 2.79199 10.319 3.09303 9.71693 3.69512C9.11484 4.2972 8.8138 5.05866 8.8138 5.97949C8.8138 6.90033 9.11484 7.66178 9.71693 8.26387C10.319 8.86595 11.0805 9.16699 12.0013 9.16699Z" fill="#7633FF"/>
</svg>
