<svg width="24" height="23" viewBox="0 0 24 23" fill="none" xmlns="http://www.w3.org/2000/svg">
<path d="M11.9993 11.292C10.441 11.292 9.16602 10.7962 8.17435 9.80449C7.18268 8.81283 6.68685 7.53783 6.68685 5.97949C6.68685 4.42116 7.18268 3.14616 8.17435 2.15449C9.16602 1.16283 10.441 0.666992 11.9993 0.666992C13.5577 0.666992 14.8327 1.16283 15.8243 2.15449C16.816 3.14616 17.3118 4.42116 17.3118 5.97949C17.3118 7.53783 16.816 8.81283 15.8243 9.80449C14.8327 10.7962 13.5577 11.292 11.9993 11.292ZM21.2077 22.6607H2.79102C2.20074 22.6607 1.699 22.4541 1.28581 22.0409C0.872613 21.6278 0.666016 21.126 0.666016 20.5357V19.3316C0.666016 18.4344 0.890321 17.667 1.33893 17.0295C1.78754 16.392 2.36602 15.908 3.07435 15.5774C4.65629 14.8691 6.17331 14.3378 7.62539 13.9837C9.07747 13.6295 10.5355 13.4524 11.9993 13.4524C13.4632 13.4524 14.9153 13.6354 16.3556 14.0014C17.7959 14.3673 19.307 14.8927 20.8889 15.5774C21.6209 15.908 22.2112 16.392 22.6598 17.0295C23.1084 17.667 23.3327 18.4344 23.3327 19.3316V20.5357C23.3327 21.126 23.1261 21.6278 22.7129 22.0409C22.2997 22.4541 21.798 22.6607 21.2077 22.6607ZM2.79102 20.5357H21.2077V19.3316C21.2077 18.9538 21.0955 18.5937 20.8712 18.2514C20.6469 17.909 20.3695 17.6552 20.0389 17.4899C18.5278 16.758 17.1466 16.2562 15.8952 15.9847C14.6438 15.7132 13.3452 15.5774 11.9993 15.5774C10.6535 15.5774 9.3431 15.7132 8.0681 15.9847C6.7931 16.2562 5.41185 16.758 3.92435 17.4899C3.59379 17.6552 3.32227 17.909 3.10977 18.2514C2.89727 18.5937 2.79102 18.9538 2.79102 19.3316V20.5357ZM11.9993 9.16699C12.9202 9.16699 13.6816 8.86595 14.2837 8.26387C14.8858 7.66178 15.1868 6.90033 15.1868 5.97949C15.1868 5.05866 14.8858 4.2972 14.2837 3.69512C13.6816 3.09303 12.9202 2.79199 11.9993 2.79199C11.0785 2.79199 10.3171 3.09303 9.71497 3.69512C9.11289 4.2972 8.81185 5.05866 8.81185 5.97949C8.81185 6.90033 9.11289 7.66178 9.71497 8.26387C10.3171 8.86595 11.0785 9.16699 11.9993 9.16699Z" fill="#7633FF"/>
</svg>
