<svg width="30" height="30" viewBox="0 0 30 30" fill="none" xmlns="http://www.w3.org/2000/svg">
<path d="M14.9652 25.1643C15.225 25.1643 15.4493 25.0639 15.6382 24.8632C15.827 24.6625 15.9215 24.4323 15.9215 24.1726V23.3226C17.3382 23.1573 18.4538 22.6792 19.2684 21.8882C20.0829 21.0972 20.4902 20.0879 20.4902 18.8601C20.4902 17.6323 20.1538 16.6525 19.4809 15.9205C18.8079 15.1886 17.6451 14.5511 15.9923 14.008C14.5048 13.5122 13.4836 13.0222 12.9288 12.5382C12.3739 12.0542 12.0965 11.4226 12.0965 10.6434C12.0965 9.91148 12.3621 9.33891 12.8934 8.92572C13.4246 8.51252 14.1507 8.30592 15.0715 8.30592C15.6382 8.30592 16.1458 8.41217 16.5944 8.62467C17.043 8.83717 17.4326 9.15592 17.7632 9.58092C17.9284 9.76981 18.1291 9.89967 18.3652 9.97051C18.6013 10.0413 18.8257 10.0177 19.0382 9.89967C19.2979 9.78162 19.4691 9.59273 19.5517 9.33301C19.6343 9.07329 19.593 8.83717 19.4277 8.62467C19.0263 8.05801 18.5364 7.6094 17.9579 7.27884C17.3795 6.94829 16.7243 6.74759 15.9923 6.67676V5.82676C15.9923 5.56704 15.8979 5.34273 15.709 5.15384C15.5201 4.96495 15.2958 4.87051 15.0361 4.87051C14.7763 4.87051 14.5461 4.96495 14.3454 5.15384C14.1447 5.34273 14.0444 5.56704 14.0444 5.82676V6.67676C12.8402 6.84204 11.8899 7.27884 11.1934 7.98717C10.4968 8.69551 10.1486 9.58092 10.1486 10.6434C10.1486 11.8004 10.4496 12.7212 11.0517 13.4059C11.6538 14.0906 12.7694 14.74 14.3986 15.3538C16.075 15.9913 17.1847 16.5462 17.7277 17.0184C18.2708 17.4906 18.5423 18.1045 18.5423 18.8601C18.5423 19.6393 18.2236 20.2945 17.5861 20.8257C16.9486 21.357 16.1694 21.6226 15.2486 21.6226C14.4694 21.6226 13.7552 21.4337 13.1059 21.0559C12.4566 20.6781 11.9548 20.1469 11.6007 19.4622C11.4826 19.2733 11.3232 19.1257 11.1225 19.0195C10.9218 18.9132 10.7152 18.8955 10.5027 18.9663C10.1958 19.0844 9.98919 19.2674 9.88294 19.5153C9.77669 19.7632 9.80621 20.017 9.97148 20.2768C10.4437 21.0559 11.0045 21.6875 11.6538 22.1715C12.3031 22.6556 13.0763 23.0156 13.9736 23.2518V24.208C13.9736 24.4677 14.0739 24.692 14.2746 24.8809C14.4753 25.0698 14.7055 25.1643 14.9652 25.1643ZM15.0007 29.1663C12.9937 29.1663 11.1284 28.8063 9.40482 28.0861C7.68121 27.366 6.1819 26.3684 4.9069 25.0934C3.6319 23.8184 2.63433 22.3191 1.91419 20.5955C1.19405 18.8719 0.833984 17.0066 0.833984 14.9997C0.833984 13.0163 1.19405 11.1629 1.91419 9.43926C2.63433 7.71565 3.6319 6.21634 4.9069 4.94134C6.1819 3.66634 7.68121 2.66287 9.40482 1.93092C11.1284 1.19898 12.9937 0.833008 15.0007 0.833008C16.984 0.833008 18.8375 1.19898 20.5611 1.93092C22.2847 2.66287 23.784 3.66634 25.059 4.94134C26.334 6.21634 27.3375 7.71565 28.0694 9.43926C28.8013 11.1629 29.1673 13.0163 29.1673 14.9997C29.1673 17.0066 28.8013 18.8719 28.0694 20.5955C27.3375 22.3191 26.334 23.8184 25.059 25.0934C23.784 26.3684 22.2847 27.366 20.5611 28.0861C18.8375 28.8063 16.984 29.1663 15.0007 29.1663ZM15.0007 27.0413C18.4243 27.0413 21.2871 25.8903 23.5892 23.5882C25.8913 21.2861 27.0423 18.4233 27.0423 14.9997C27.0423 11.5761 25.8913 8.71322 23.5892 6.41113C21.2871 4.10905 18.4243 2.95801 15.0007 2.95801C11.577 2.95801 8.71419 4.10905 6.41211 6.41113C4.11003 8.71322 2.95898 11.5761 2.95898 14.9997C2.95898 18.4233 4.11003 21.2861 6.41211 23.5882C8.71419 25.8903 11.577 27.0413 15.0007 27.0413Z" fill="#7633FF"/>
</svg>
