<svg width="30" height="28" viewBox="0 0 30 28" fill="none" xmlns="http://www.w3.org/2000/svg">
<path d="M2.95898 27.7497C2.39232 27.7497 1.89648 27.5372 1.47148 27.1122C1.04648 26.6872 0.833984 26.1913 0.833984 25.6247V8.62467C0.833984 8.05801 1.04648 7.56217 1.47148 7.13717C1.89648 6.71217 2.39232 6.49967 2.95898 6.49967H9.33398V2.95801C9.33398 2.39134 9.54648 1.89551 9.97148 1.47051C10.3965 1.04551 10.8923 0.833008 11.459 0.833008H18.5423C19.109 0.833008 19.6048 1.04551 20.0298 1.47051C20.4548 1.89551 20.6673 2.39134 20.6673 2.95801V6.49967H27.0423C27.609 6.49967 28.1048 6.71217 28.5298 7.13717C28.9548 7.56217 29.1673 8.05801 29.1673 8.62467V25.6247C29.1673 26.1913 28.9548 26.6872 28.5298 27.1122C28.1048 27.5372 27.609 27.7497 27.0423 27.7497H2.95898ZM2.95898 25.6247H27.0423V8.62467H2.95898V25.6247ZM11.459 6.49967H18.5423V2.95801H11.459V6.49967ZM2.95898 25.6247V8.62467V25.6247Z" fill="#7633FF"/>
</svg>
